<svg width="21" height="19" viewBox="0 0 21 19" fill="none" xmlns="http://www.w3.org/2000/svg">
<path d="M10.6625 0.18627C10.3148 -0.06209 9.8477 -0.06209 9.5 0.18627L0 6.97198L1.16248 8.5994L10.0812 2.2289L19 8.5994L20.1625 6.97198L10.6625 0.18627ZM17.6625 10.1863L10.6625 5.18627C10.3148 4.93791 9.8477 4.93791 9.5 5.18627L2.5 10.1863C2.23721 10.374 2.08124 10.677 2.08124 11V17.5C2.08124 18.0523 2.52895 18.5 3.08124 18.5H17.0812C17.6335 18.5 18.0812 18.0523 18.0812 17.5V11C18.0812 10.677 17.9253 10.374 17.6625 10.1863Z" fill="#314158"/>
</svg>
