<svg width="17" height="17" viewBox="0 0 17 17" fill="none" xmlns="http://www.w3.org/2000/svg">
<path d="M8.50022 15.2678H16.0002M1.00024 15.2678H2.39569C2.80335 15.2678 3.00718 15.2678 3.19899 15.2217C3.36904 15.1809 3.53162 15.1135 3.68074 15.0222C3.84894 14.9191 3.99306 14.7749 4.28132 14.4867L14.7503 4.01776C15.4406 3.32741 15.4406 2.20812 14.7503 1.51776C14.0599 0.827413 12.9406 0.827413 12.2503 1.51776L1.78129 11.9867C1.49304 12.2749 1.34891 12.4191 1.24584 12.5873C1.15446 12.7364 1.08712 12.8989 1.04629 13.069C1.00024 13.2609 1.00024 13.4647 1.00024 13.8724V15.2678Z" stroke="#314158" stroke-width="2" stroke-linecap="round" stroke-linejoin="round"/>
</svg>
