<svg width="25" height="22" viewBox="0 0 25 22" fill="none" xmlns="http://www.w3.org/2000/svg">
<path d="M5.68182 9.9H14.7727V12.1H5.68182V15.4L0 11L5.68182 6.6V9.9ZM4.54462 17.6H7.62313C9.2257 18.9692 11.3308 19.8 13.6364 19.8C18.6572 19.8 22.7273 15.8601 22.7273 11C22.7273 6.13989 18.6572 2.2 13.6364 2.2C11.3308 2.2 9.2257 3.0308 7.62313 4.4H4.54462C6.61782 1.72822 9.91859 0 13.6364 0C19.9123 0 25 4.92486 25 11C25 17.0751 19.9123 22 13.6364 22C9.91859 22 6.61782 20.2718 4.54462 17.6Z" fill="white"/>
</svg>
