<svg width="18" height="20" viewBox="0 0 18 20" fill="none" xmlns="http://www.w3.org/2000/svg">
<path d="M6.57792 18.1C7.2234 18.6602 8.07137 19 8.99998 19C9.92869 19 10.7766 18.6602 11.422 18.1M14.4926 6.4C14.4926 4.96783 13.9139 3.59432 12.8839 2.58162C11.8538 1.56893 10.4567 1 8.99998 1C7.54325 1 6.14621 1.56893 5.11615 2.58162C4.08609 3.59432 3.5074 4.96783 3.5074 6.4C3.5074 9.18118 2.7938 11.0854 1.99663 12.3449C1.32422 13.4073 0.988005 13.9385 1.00033 14.0867C1.01399 14.2508 1.04934 14.3133 1.18383 14.4114C1.30529 14.5 1.85284 14.5 2.94794 14.5H15.0521C16.1471 14.5 16.6947 14.5 16.8161 14.4114C16.9507 14.3133 16.986 14.2508 16.9997 14.0867C17.012 13.9385 16.6758 13.4073 16.0034 12.3449C15.2062 11.0854 14.4926 9.18118 14.4926 6.4Z" stroke="#90A1B9" stroke-width="2" stroke-linecap="round" stroke-linejoin="round"/>
</svg>
