<svg width="163" height="171" viewBox="0 0 163 171" fill="none" xmlns="http://www.w3.org/2000/svg">
<path opacity="0.1" d="M96.9999 14.1118L43.6526 68.5574C14.1898 98.6273 14.1898 147.379 43.6526 177.449C73.1155 207.519 120.884 207.519 150.347 177.449C179.81 147.379 179.81 98.6273 150.347 68.5575L96.9999 14.1118ZM96.9999 -17L165.59 53.0015C203.47 91.6623 203.47 154.344 165.59 193.005C127.708 231.665 66.2914 231.665 28.4106 193.005C-9.47021 154.344 -9.47021 91.6623 28.4106 53.0015L96.9999 -17ZM43.111 123.003H150.889C150.889 153.378 126.762 178.001 96.9999 178.001C67.2379 178.001 43.111 153.378 43.111 123.003Z" fill="white"/>
</svg>
