<svg width="268" height="72" viewBox="0 0 268 72" fill="none" xmlns="http://www.w3.org/2000/svg">
<path d="M28.972 9.24609L13.0382 25.4267C4.23821 34.3632 4.23821 48.8516 13.0382 57.788C21.8382 66.7245 36.1058 66.7245 44.9056 57.788C53.7057 48.8516 53.7057 34.3632 44.9056 25.4267L28.972 9.24609ZM28.972 0L49.4584 20.8037C60.7726 32.2932 60.7726 50.9215 49.4584 62.411C38.1439 73.9005 19.8 73.9005 8.4857 62.411C-2.82857 50.9215 -2.82857 32.2932 8.4857 20.8037L28.972 0ZM12.8764 41.6072H45.0675C45.0675 50.6345 37.8612 57.9521 28.972 57.9521C20.0827 57.9521 12.8764 50.6345 12.8764 41.6072Z" fill="white"/>
<path d="M73.7496 51.5142L85.2337 19.6636H93.3085L104.793 51.5142H97.7047L95.372 44.7403H83.1253L80.7926 51.5142H73.7496ZM85.0542 39.1328H93.4879L89.2711 26.8412L85.0542 39.1328ZM129.218 54.2955L126.75 51.2001C126.063 51.5291 125.225 51.7833 124.238 51.9628C123.281 52.1422 122.22 52.2319 121.053 52.2319C117.913 52.2319 115.192 51.5291 112.889 50.1235C110.586 48.688 108.807 46.7291 107.55 44.2469C106.294 41.7347 105.666 38.8637 105.666 35.6338C105.666 32.4637 106.249 29.6225 107.416 27.1104C108.612 24.5982 110.347 22.6094 112.62 21.144C114.922 19.6786 117.734 18.9459 121.053 18.9459C124.373 18.9459 127.169 19.6786 129.442 21.144C131.745 22.6094 133.479 24.5982 134.646 27.1104C135.812 29.6225 136.395 32.4637 136.395 35.6338C136.395 38.5945 135.887 41.1964 134.87 43.4394C133.883 45.6824 132.463 47.5515 130.608 49.0469L134.825 54.2955H129.218ZM121.053 46.4899C121.442 46.4899 121.801 46.4749 122.13 46.445C122.459 46.3852 122.773 46.2955 123.072 46.1758L118.631 40.7478H124.283L126.616 43.8431C127.513 43.0057 128.186 41.9291 128.635 40.6132C129.113 39.2674 129.352 37.6076 129.352 35.6338C129.352 33.6898 129.053 31.8954 128.455 30.2506C127.887 28.5758 126.99 27.23 125.764 26.2132C124.537 25.1964 122.967 24.6879 121.053 24.6879C119.109 24.6879 117.524 25.1964 116.298 26.2132C115.072 27.23 114.16 28.5758 113.562 30.2506C112.993 31.8954 112.709 33.6898 112.709 35.6338C112.709 37.5478 112.993 39.3422 113.562 41.0169C114.16 42.6618 115.072 43.9927 116.298 45.0095C117.554 45.9964 119.139 46.4899 121.053 46.4899ZM154.05 52.2319C151.359 52.2319 149.026 51.7385 147.052 50.7515C145.108 49.7646 143.598 48.359 142.521 46.5347C141.445 44.6805 140.906 42.5123 140.906 40.03V19.6188H147.725V40.03C147.725 42.0936 148.263 43.6936 149.34 44.83C150.446 45.9366 152.017 46.4899 154.05 46.4899C156.084 46.4899 157.639 45.9366 158.716 44.83C159.792 43.6936 160.331 42.0936 160.331 40.03V19.6188H167.149V40.03C167.149 42.5123 166.611 44.6805 165.534 46.5347C164.488 48.359 162.977 49.7646 161.003 50.7515C159.03 51.7385 156.712 52.2319 154.05 52.2319ZM187.207 52.2319C183.977 52.2319 181.196 51.559 178.863 50.2132C176.56 48.8674 174.781 46.9534 173.525 44.4712C172.299 41.9889 171.686 39.0431 171.686 35.6338C171.686 32.2244 172.299 29.2786 173.525 26.7964C174.781 24.2842 176.56 22.3552 178.863 21.0094C181.196 19.6337 183.977 18.9459 187.207 18.9459C190.437 18.9459 193.204 19.6337 195.506 21.0094C197.839 22.3552 199.618 24.2842 200.845 26.7964C202.101 29.2786 202.729 32.2244 202.729 35.6338C202.729 39.0431 202.101 41.9889 200.845 44.4712C199.618 46.9534 197.839 48.8674 195.506 50.2132C193.204 51.559 190.437 52.2319 187.207 52.2319ZM187.162 46.4899C188.957 46.4899 190.482 46.0712 191.738 45.2338C193.024 44.3665 193.996 43.1254 194.654 41.5104C195.342 39.8954 195.686 37.9366 195.686 35.6338C195.686 33.331 195.342 31.3721 194.654 29.7571C193.996 28.1123 193.024 26.8562 191.738 25.9889C190.482 25.1216 188.957 24.6879 187.162 24.6879C185.398 24.6879 183.888 25.1216 182.632 25.9889C181.375 26.8562 180.403 28.1123 179.716 29.7571C179.058 31.3721 178.729 33.331 178.729 35.6338C178.729 37.9366 179.058 39.8954 179.716 41.5104C180.403 43.1254 181.375 44.3665 182.632 45.2338C183.918 46.0712 185.428 46.4899 187.162 46.4899ZM207.248 51.5142V19.6636H221.199C223.532 19.6636 225.551 20.0524 227.256 20.83C228.99 21.6076 230.321 22.7141 231.248 24.1496C232.175 25.5552 232.639 27.23 232.639 29.1739C232.639 30.6394 232.325 31.9403 231.697 33.0767C231.099 34.2132 230.261 35.1403 229.185 35.8581C228.138 36.5758 226.927 37.0244 225.551 37.2039L225.416 36.8001C227.54 36.8001 229.155 37.2637 230.261 38.1908C231.368 39.088 231.996 40.4786 232.145 42.3627L232.953 51.5142H225.999L225.416 43.4394C225.327 42.2132 224.938 41.316 224.25 40.7478C223.592 40.1497 222.456 39.8506 220.841 39.8506H214.067V51.5142H207.248ZM214.067 34.1534H220.437C222.082 34.1534 223.353 33.7795 224.25 33.0319C225.177 32.2543 225.641 31.1627 225.641 29.7571C225.641 28.3216 225.177 27.245 224.25 26.5272C223.323 25.7795 221.977 25.4057 220.213 25.4057H214.067V34.1534ZM235.622 51.5142L247.106 19.6636H255.181L266.665 51.5142H259.577L257.244 44.7403H244.998L242.665 51.5142H235.622ZM246.927 39.1328H255.36L251.143 26.8412L246.927 39.1328Z" fill="white"/>
</svg>
