<svg width="16" height="16" viewBox="0 0 16 16" fill="none" xmlns="http://www.w3.org/2000/svg">
<path d="M10.8581 6.28483C10.275 5.31535 9.21267 4.66634 7.99967 4.66634C6.15967 4.66634 4.66634 6.15967 4.66634 7.99967C4.66634 9.83967 6.15967 11.333 7.99967 11.333C9.21267 11.333 10.275 10.684 10.8581 9.71454L9.71494 9.02914C9.36521 9.61074 8.72814 9.99967 7.99967 9.99967C6.89467 9.99967 5.99967 9.10467 5.99967 7.99967C5.99967 6.89467 6.89467 5.99967 7.99967 5.99967C8.72834 5.99967 9.36574 6.38891 9.71534 6.97087L10.8581 6.28483ZM14.6663 7.99967C14.6663 4.31966 11.6797 1.33301 7.99967 1.33301C4.31966 1.33301 1.33301 4.31966 1.33301 7.99967C1.33301 11.6797 4.31966 14.6663 7.99967 14.6663C11.6797 14.6663 14.6663 11.6797 14.6663 7.99967ZM2.66634 7.99967C2.66634 5.05298 5.05298 2.66634 7.99967 2.66634C10.9463 2.66634 13.333 5.05298 13.333 7.99967C13.333 10.9463 10.9463 13.333 7.99967 13.333C5.05298 13.333 2.66634 10.9463 2.66634 7.99967Z" fill="white" fill-opacity="0.8"/>
</svg>
