<svg width="12" height="7" viewBox="0 0 12 7" fill="none" xmlns="http://www.w3.org/2000/svg">
<path d="M0.933882 6.4C0.418941 6.4 0 5.94946 0 5.39687C0 4.84427 0.418941 4.39444 0.933882 4.39444C1.10824 4.39444 1.28012 4.44921 1.43153 4.55197L1.45165 4.56548L3.79447 2.59335L3.792 2.57237C3.78212 2.50517 3.77647 2.46463 3.77647 2.42409C3.77647 1.87079 4.19506 1.42131 4.71 1.42131C5.22459 1.42131 5.64388 1.87114 5.64388 2.42409C5.64388 2.577 5.60859 2.72955 5.53941 2.8757L5.52953 2.89739L6.47224 4.17291L6.49447 4.16473C6.58765 4.13379 6.68153 4.11779 6.77506 4.11779C6.95894 4.11779 7.13753 4.17575 7.29141 4.2867L7.31365 4.30163L10.2134 1.40531L10.2046 1.38184C10.1576 1.25916 10.134 1.13186 10.134 1.00207C10.134 0.449472 10.5529 0 11.0679 0C11.5828 0 12 0.449117 12 1.00136C12 1.55431 11.5811 2.00413 11.0661 2.00413C10.9225 2.00413 10.7799 1.96573 10.6433 1.88963L10.6225 1.87861L7.66447 4.83396L7.67012 4.85529C7.69553 4.95451 7.70753 5.03843 7.70753 5.11986C7.70753 5.6721 7.28859 6.12299 6.77365 6.12299C6.25871 6.12299 5.83976 5.67174 5.83976 5.11986C5.83976 4.93708 5.88847 4.76035 5.98482 4.59429L5.99718 4.5726L5.08765 3.34188L5.06435 3.35113C4.95212 3.40127 4.83282 3.42616 4.71 3.42616C4.49718 3.42616 4.28965 3.34757 4.12447 3.20462L4.10365 3.18613L4.06659 3.18684L1.81553 5.0811L1.82224 5.10528C1.85294 5.21267 1.86741 5.30548 1.86741 5.39615C1.86741 5.94946 1.44847 6.4 0.933882 6.4ZM0.933882 5.04198C0.751412 5.04198 0.602824 5.20129 0.602824 5.39687C0.602824 5.59351 0.751412 5.75246 0.933882 5.75246C1.11635 5.75246 1.26494 5.59351 1.26494 5.39687C1.26459 5.20129 1.11635 5.04198 0.933882 5.04198ZM6.774 4.76462C6.69918 4.76462 6.63 4.78951 6.57282 4.83752C6.49024 4.90508 6.44294 5.00785 6.44294 5.1195C6.44294 5.31543 6.59153 5.47474 6.774 5.47474C6.95647 5.47474 7.10506 5.31543 7.10506 5.1195C7.10506 4.92357 6.95647 4.76462 6.774 4.76462ZM4.70965 2.06885C4.52718 2.06885 4.37859 2.22816 4.37859 2.42409C4.37859 2.53148 4.42376 2.63247 4.50247 2.70074C4.54976 2.74128 4.63306 2.7676 4.71529 2.7676C4.78024 2.7676 4.87235 2.75159 4.94329 2.67514C5.00577 2.60829 5.04035 2.51904 5.04035 2.42409C5.04035 2.22851 4.89176 2.06885 4.70965 2.06885ZM11.0661 0.646827C10.8836 0.646827 10.7351 0.805067 10.7351 1.00136C10.7351 1.19729 10.8836 1.3566 11.0661 1.3566C11.2486 1.3566 11.3972 1.19729 11.3972 1.00136C11.3975 0.805423 11.2486 0.646827 11.0661 0.646827Z" fill="#8A96A6"/>
</svg>
