<svg width="16" height="16" viewBox="0 0 16 16" fill="none" xmlns="http://www.w3.org/2000/svg">
<g clip-path="url(#clip0_55_1616)">
<path d="M9.99353 1.33252H3.99749C3.6441 1.33252 3.30519 1.4729 3.05531 1.72279C2.80542 1.97267 2.66504 2.31158 2.66504 2.66497V13.3246C2.66504 13.678 2.80542 14.0169 3.05531 14.2668C3.30519 14.5167 3.6441 14.6571 3.99749 14.6571H11.9922C12.3456 14.6571 12.6845 14.5167 12.9344 14.2668C13.1843 14.0169 13.3247 13.678 13.3247 13.3246V4.66365L9.99353 1.33252Z" stroke="#4A5565" stroke-width="1.33245" stroke-linecap="round" stroke-linejoin="round"/>
<path d="M9.32715 1.33252C9.32715 1.33252 9.32715 3.64404 9.32715 3.99743C9.32715 4.35081 9.46753 4.68973 9.71742 4.93961C9.9673 5.1895 10.3062 5.32988 10.6596 5.32988H13.3245" stroke="#4A5565" stroke-width="1.33245" stroke-linecap="round" stroke-linejoin="round"/>
<path d="M6.66204 5.99609H5.32959" stroke="#4A5565" stroke-width="1.33245" stroke-linecap="round" stroke-linejoin="round"/>
<path d="M10.6594 8.66089H5.32959" stroke="#4A5565" stroke-width="1.33245" stroke-linecap="round" stroke-linejoin="round"/>
<path d="M10.6594 11.3259H5.32959" stroke="#4A5565" stroke-width="1.33245" stroke-linecap="round" stroke-linejoin="round"/>
</g>
<defs>
<clipPath id="clip0_55_1616">
<rect width="15.9894" height="15.9894" fill="white"/>
</clipPath>
</defs>
</svg>
