<svg width="16" height="19" viewBox="0 0 16 19" fill="none" xmlns="http://www.w3.org/2000/svg">
<path d="M4.25 16.7H11.75V14C11.75 13.01 11.3828 12.1625 10.6484 11.4575C9.91409 10.7525 9.03125 10.4 8 10.4C6.96875 10.4 6.08593 10.7525 5.35156 11.4575C4.61719 12.1625 4.25 13.01 4.25 14V16.7ZM0.5 18.5V16.7H2.375V14C2.375 13.085 2.59766 12.2263 3.04297 11.4237C3.48828 10.6212 4.10938 9.97997 4.90625 9.5C4.10938 9.02 3.48828 8.37875 3.04297 7.57625C2.59766 6.77375 2.375 5.915 2.375 5V2.3H0.5V0.5H15.5V2.3H13.625V5C13.625 5.915 13.4023 6.77375 12.957 7.57625C12.5117 8.37875 11.8906 9.02 11.0938 9.5C11.8906 9.97997 12.5117 10.6212 12.957 11.4237C13.4023 12.2263 13.625 13.085 13.625 14V16.7H15.5V18.5H0.5Z" fill="#F59E0B" stroke="black"/>
</svg>
